<svg xmlns="http://www.w3.org/2000/svg" width="316.702" height="119.45" viewBox="0 0 316.702 119.45">
  <g id="Grupo_68" data-name="Grupo 68" transform="translate(-216.649 -401.3)">
    <g id="Grupo_65" data-name="Grupo 65">
      <rect id="Rect치ngulo_60" data-name="Rect치ngulo 60" width="33.182" height="2.059" transform="translate(236.675 421.964)" fill="#384a51"/>
      <g id="Grupo_64" data-name="Grupo 64">
        <path id="Trazado_78" data-name="Trazado 78" d="M250.013,421.8a24.941,24.941,0,0,1,1.22-7.837,19.883,19.883,0,0,1,3.552-6.536,17.015,17.015,0,0,1,5.722-4.474,17.528,17.528,0,0,1,7.783-1.654,18.566,18.566,0,0,1,5.695.868,15.169,15.169,0,0,1,8.46,6.616,14.708,14.708,0,0,1,1.953,5.424H282.12a14.868,14.868,0,0,0-4.881-7.973,13.621,13.621,0,0,0-8.9-2.874,15,15,0,0,0-6.888,1.518,14.813,14.813,0,0,0-4.989,4.068,17.984,17.984,0,0,0-3.038,5.885,24.4,24.4,0,0,0-.027,13.938,16.739,16.739,0,0,0,2.983,5.722,14.255,14.255,0,0,0,4.963,3.878,15.952,15.952,0,0,0,7,1.437,16.258,16.258,0,0,0,6.237-1.139,13.193,13.193,0,0,0,4.692-3.2,13.446,13.446,0,0,0,2.9-4.962,17.7,17.7,0,0,0,.814-6.482H268.724v-2.06h16.324v18.982h-2.06V432.7h-.109a11.836,11.836,0,0,1-2.115,3.824,13.063,13.063,0,0,1-3.335,2.874,16.884,16.884,0,0,1-4.285,1.817,19.56,19.56,0,0,1-12.691-.922,16.692,16.692,0,0,1-5.722-4.285,18.371,18.371,0,0,1-3.525-6.372A25.127,25.127,0,0,1,250.013,421.8Z" fill="#384a51"/>
        <path id="Trazado_79" data-name="Trazado 79" d="M325.888,402.222h2.6l15.294,38.724h-2.549l-4.88-12.42H317.807l-4.936,12.42h-2.549Zm9.708,24.243-8.3-21.911h-.109l-8.623,21.911Z" fill="#384a51"/>
        <path id="Trazado_80" data-name="Trazado 80" d="M369.33,402.222h16.162a21.147,21.147,0,0,1,4.773.515,11.227,11.227,0,0,1,3.9,1.681,8.031,8.031,0,0,1,2.631,3.065,10.5,10.5,0,0,1,.949,4.718,10.064,10.064,0,0,1-2.2,6.589,9.6,9.6,0,0,1-6.1,3.336v.108a9.221,9.221,0,0,1,4.2,1.411,6.883,6.883,0,0,1,2.3,2.657,10.746,10.746,0,0,1,.977,3.471,33.581,33.581,0,0,1,.217,3.8v2.223a18.01,18.01,0,0,0,.108,2.034,10.092,10.092,0,0,0,.353,1.763,3.965,3.965,0,0,0,.678,1.356h-2.658a7.032,7.032,0,0,1-.841-3.173q-.081-1.816-.081-3.769t-.163-3.878a8.257,8.257,0,0,0-1.03-3.444,6.183,6.183,0,0,0-2.739-2.441,12.235,12.235,0,0,0-5.288-.922H371.716v17.627H369.33Zm16.162,19.037a14.343,14.343,0,0,0,3.932-.516,8.352,8.352,0,0,0,3.119-1.6,7.6,7.6,0,0,0,2.06-2.766,9.676,9.676,0,0,0,.76-4.013,7.875,7.875,0,0,0-.814-3.715,7.161,7.161,0,0,0-2.169-2.522,8.9,8.9,0,0,0-3.146-1.41,15.84,15.84,0,0,0-3.742-.434H371.716v16.976Z" fill="#384a51"/>
        <path id="Trazado_81" data-name="Trazado 81" d="M426.277,402.222h12.691a20.23,20.23,0,0,1,8.65,1.627,14.585,14.585,0,0,1,5.5,4.339,16.528,16.528,0,0,1,2.9,6.183,30.327,30.327,0,0,1,.841,7.159,26.782,26.782,0,0,1-1.058,7.674,16.66,16.66,0,0,1-3.281,6.155,15.423,15.423,0,0,1-5.614,4.1,19.879,19.879,0,0,1-8.054,1.492H426.277Zm12.8,36.663a18.48,18.48,0,0,0,5.451-.841,13.219,13.219,0,0,0,4.962-2.82,14.311,14.311,0,0,0,3.607-5.315,22,22,0,0,0,1.383-8.379,25.552,25.552,0,0,0-.786-6.78A16.746,16.746,0,0,0,451.632,410a10.73,10.73,0,0,0-2.929-3.037,14.446,14.446,0,0,0-3.417-1.708,16.438,16.438,0,0,0-3.525-.786,29.82,29.82,0,0,0-3.173-.19h-9.925v34.6Z" fill="#384a51"/>
        <path id="Trazado_82" data-name="Trazado 82" d="M495.427,402.222h2.6l15.294,38.724h-2.549l-4.882-12.42H487.346l-4.936,12.42h-2.549Zm9.708,24.243-8.3-21.911h-.108l-8.623,21.911Z" fill="#384a51"/>
      </g>
    </g>
    <g id="Grupo_67" data-name="Grupo 67">
      <g id="Grupo_66" data-name="Grupo 66">
        <rect id="Rect치ngulo_61" data-name="Rect치ngulo 61" width="33.182" height="2.059" transform="translate(265.091 500.355)" fill="#384a51"/>
        <path id="Trazado_83" data-name="Trazado 83" d="M278.429,500.192a24.945,24.945,0,0,1,1.22-7.837,19.863,19.863,0,0,1,3.553-6.535,16.991,16.991,0,0,1,5.721-4.475,17.542,17.542,0,0,1,7.783-1.654,18.6,18.6,0,0,1,5.7.868,15.165,15.165,0,0,1,8.46,6.617,14.7,14.7,0,0,1,1.953,5.423h-2.278a14.872,14.872,0,0,0-4.881-7.973,13.618,13.618,0,0,0-8.894-2.874,14.981,14.981,0,0,0-6.888,1.519,14.792,14.792,0,0,0-4.99,4.067,17.984,17.984,0,0,0-3.038,5.885,24.4,24.4,0,0,0-.027,13.938,16.739,16.739,0,0,0,2.983,5.722,14.255,14.255,0,0,0,4.963,3.878,15.954,15.954,0,0,0,7,1.437A16.262,16.262,0,0,0,303,517.059a13.2,13.2,0,0,0,4.691-3.2,13.416,13.416,0,0,0,2.9-4.962,17.694,17.694,0,0,0,.814-6.481H297.14v-2.061h16.325v18.982H311.4v-8.244H311.3a11.836,11.836,0,0,1-2.115,3.824,13.063,13.063,0,0,1-3.335,2.874,16.884,16.884,0,0,1-4.285,1.817,19.56,19.56,0,0,1-12.691-.922,16.7,16.7,0,0,1-5.722-4.285,18.371,18.371,0,0,1-3.525-6.372A25.126,25.126,0,0,1,278.429,500.192Z" fill="#384a51"/>
      </g>
      <path id="Trazado_84" data-name="Trazado 84" d="M219.053,480.822V504.2q0,1.147.109,2.676a16.66,16.66,0,0,0,1.775,6.31,9.564,9.564,0,0,0,2.158,2.785,10.276,10.276,0,0,0,3.359,1.967,14,14,0,0,0,4.834.737,15.746,15.746,0,0,0,6.035-1.011,9.661,9.661,0,0,0,3.933-2.894,11.653,11.653,0,0,0,2.158-4.561,25.306,25.306,0,0,0,.655-6.009V480.822h2.4V504.2a27.187,27.187,0,0,1-.738,6.5,13.714,13.714,0,0,1-2.485,5.244,11.806,11.806,0,0,1-4.671,3.523,18.171,18.171,0,0,1-7.291,1.284,17.688,17.688,0,0,1-5.9-.874,12.623,12.623,0,0,1-4.069-2.267,10.663,10.663,0,0,1-2.539-3.2,18.291,18.291,0,0,1-2.021-7.183q-.109-1.72-.11-3.032V480.822Z" fill="#384a51"/>
      <path id="Trazado_85" data-name="Trazado 85" d="M354.687,480.822h2.622l15.4,39h-2.566l-4.917-12.508h-18.68l-4.97,12.508H339.01Zm9.777,24.415-8.357-22.067H356l-8.685,22.067Z" fill="#384a51"/>
      <path id="Trazado_86" data-name="Trazado 86" d="M398.383,480.822H414.66a21.326,21.326,0,0,1,4.807.518,11.326,11.326,0,0,1,3.932,1.693,8.106,8.106,0,0,1,2.65,3.087,10.577,10.577,0,0,1,.955,4.752,10.129,10.129,0,0,1-2.212,6.636,9.662,9.662,0,0,1-6.144,3.36v.109a9.3,9.3,0,0,1,4.233,1.42,6.938,6.938,0,0,1,2.321,2.677,10.828,10.828,0,0,1,.983,3.495,33.591,33.591,0,0,1,.219,3.824v2.239a17.79,17.79,0,0,0,.109,2.048,10.082,10.082,0,0,0,.355,1.775,3.986,3.986,0,0,0,.683,1.366h-2.677a7.1,7.1,0,0,1-.846-3.2q-.083-1.83-.082-3.8t-.164-3.906a8.319,8.319,0,0,0-1.038-3.468A6.229,6.229,0,0,0,419.986,503a12.331,12.331,0,0,0-5.326-.928H400.787v17.752h-2.4Zm16.277,19.172a14.43,14.43,0,0,0,3.96-.52,8.38,8.38,0,0,0,3.141-1.611,7.653,7.653,0,0,0,2.075-2.785,9.776,9.776,0,0,0,.765-4.042,7.946,7.946,0,0,0-.819-3.742,7.212,7.212,0,0,0-2.185-2.539,8.984,8.984,0,0,0-3.168-1.421,16,16,0,0,0-3.769-.437H400.787v17.1Z" fill="#384a51"/>
      <path id="Trazado_87" data-name="Trazado 87" d="M451.42,482.9v-2.075H481.3V482.9H467.533v36.924h-2.4V482.9Z" fill="#384a51"/>
      <path id="Trazado_88" data-name="Trazado 88" d="M506.86,480.822h26.218V482.9H509.264v15.622h22.394v2.075H509.264v17.151h24.087v2.076H506.86Z" fill="#384a51"/>
    </g>
  </g>
</svg>
