<svg xmlns="http://www.w3.org/2000/svg" width="80.55" height="40" viewBox="0 0 80.55 40">
  <g id="Capa_2" data-name="Capa 2" transform="translate(-81.689 146.553)">
    <g id="Grupo_111" data-name="Grupo 111" transform="translate(47 -170)">
      <g id="Grupo_109" data-name="Grupo 109">
        <path id="Trazado_150" data-name="Trazado 150" d="M80.18,49.944H78.252c-.459,0-.664-.205-.664-.665V34.187a2.221,2.221,0,0,0-2.223-2.223l-4.483,0c-2.021,0-2.69.466-3.411,2.373,0,0-5.289,13.935-5.418,14.423-.129-.489-5.418-14.422-5.418-14.422-.721-1.908-1.4-2.374-3.452-2.374h-1.32V34.8h.591a1.068,1.068,0,0,1,1.207.787l6.7,17.2h3.307l6.7-17.206c.194-.581.5-.777,1.2-.777h2.145a.59.59,0,0,1,.665.665v15.1a2.214,2.214,0,0,0,.523,1.431,1.78,1.78,0,0,0,.271.271,2.212,2.212,0,0,0,1.429.521H80.18Z" fill="#384a51"/>
        <path id="Trazado_151" data-name="Trazado 151" d="M89.186,49.942H87.259a.664.664,0,0,1-.665-.664V25.67a2.223,2.223,0,0,0-2.223-2.223H80.795V26.29h1.928a.664.664,0,0,1,.664.664V50.562a2.224,2.224,0,0,0,2.223,2.223h3.576Z" fill="#384a51"/>
        <path id="Trazado_152" data-name="Trazado 152" d="M108.554,40.83c-2.542-1-4.737-1.871-4.737-3.782,0-2.257,2.344-2.731,4.31-2.731,1.076,0,3.3.45,3.3,1.84v.3h3.045V35.387c0-2.87-3.841-3.912-6.423-3.912-4.612,0-7.476,2.2-7.476,5.734,0,3.75,3.547,5.178,6.676,6.437,2.546,1.025,4.745,1.91,4.745,3.77,0,2.082-2.042,3.014-4.067,3.014a8.131,8.131,0,0,1-6.1-2.987l-.172-.232L99.782,49.47l.1.142a9.916,9.916,0,0,0,8,3.66c4.261,0,7.355-2.5,7.355-5.937,0-3.866-3.552-5.268-6.685-6.5" fill="#384a51"/>
        <path id="Trazado_153" data-name="Trazado 153" d="M54.478,49.944a1.069,1.069,0,0,1-1.207-.788l-6.7-17.195H43.185l-6.7,17.195a1.069,1.069,0,0,1-1.207.788h-.591v2.842h1.32c2.054,0,2.731-.466,3.452-2.374,0,0,5.288-13.933,5.418-14.422.13.489,5.418,14.422,5.418,14.422.721,1.908,1.4,2.374,3.452,2.374h1.319V49.944Z" fill="#384a51"/>
        <path id="Trazado_154" data-name="Trazado 154" d="M96.275,49.944c-.46,0-.665-.205-.665-.665V34.187a2.221,2.221,0,0,0-2.223-2.223l-3.577,0V34.8h1.928a.589.589,0,0,1,.664.665V50.562a2.212,2.212,0,0,0,.489,1.39,1.772,1.772,0,0,0,.346.346,2.214,2.214,0,0,0,1.389.488H98.2V49.944Z" fill="#384a51"/>
        <path id="Trazado_155" data-name="Trazado 155" d="M47.311,24.874h0a1.912,1.912,0,0,0-1.788,1.075c-.5,1.249-1.025,2.526-1.276,3.19h1.9a1.588,1.588,0,0,0,1.61-.951L49.1,24.874Z" fill="#384a51"/>
        <circle id="Elipse_31" data-name="Elipse 31" cx="1.929" cy="1.929" r="1.929" transform="translate(74.087 25.282)" fill="#384a51"/>
        <circle id="Elipse_32" data-name="Elipse 32" cx="1.929" cy="1.929" r="1.929" transform="translate(92.078 25.282)" fill="#384a51"/>
      </g>
      <g id="Grupo_110" data-name="Grupo 110">
        <path id="Trazado_156" data-name="Trazado 156" d="M48.291,63.394V59.657h1.474a1.6,1.6,0,0,1,.724.15,1.063,1.063,0,0,1,.458.426,1.274,1.274,0,0,1,.158.645,1.218,1.218,0,0,1-.161.639,1.039,1.039,0,0,1-.464.41,1.724,1.724,0,0,1-.735.142h-.987v-.635h.86a.979.979,0,0,0,.376-.062.449.449,0,0,0,.223-.186.6.6,0,0,0,.074-.308.621.621,0,0,0-.074-.314.473.473,0,0,0-.224-.195.95.95,0,0,0-.379-.066h-.533v3.091Zm2.018-1.7.929,1.7h-.872l-.909-1.7Z" fill="#384a51"/>
        <path id="Trazado_157" data-name="Trazado 157" d="M53.668,63.394V59.657h2.518v.651H54.458V61.2h1.6v.651h-1.6v.893h1.735v.651Z" fill="#384a51"/>
        <path id="Trazado_158" data-name="Trazado 158" d="M59.464,63.394h-.847l1.291-3.737h1.018l1.288,3.737h-.846l-.937-2.883H60.4Zm-.053-1.469h2v.617h-2Z" fill="#384a51"/>
        <path id="Trazado_159" data-name="Trazado 159" d="M64.667,63.394V59.657h.791v3.086h1.6v.651Z" fill="#384a51"/>
        <path id="Trazado_160" data-name="Trazado 160" d="M72.784,63.394V59.657H75.3v.651H73.574V61.2h1.6v.651h-1.6v.893H75.31v.651Z" fill="#384a51"/>
        <path id="Trazado_161" data-name="Trazado 161" d="M79.964,60.732a.465.465,0,0,0-.188-.343.743.743,0,0,0-.451-.123A.874.874,0,0,0,79,60.32a.461.461,0,0,0-.2.149.351.351,0,0,0-.07.215.3.3,0,0,0,.042.175.418.418,0,0,0,.129.129.908.908,0,0,0,.19.093,1.827,1.827,0,0,0,.23.067l.336.08a2.411,2.411,0,0,1,.449.146,1.373,1.373,0,0,1,.354.225.94.94,0,0,1,.232.313.992.992,0,0,1,.085.415,1.032,1.032,0,0,1-.174.594,1.107,1.107,0,0,1-.5.388,1.986,1.986,0,0,1-.78.138,2.057,2.057,0,0,1-.787-.138,1.153,1.153,0,0,1-.522-.412,1.215,1.215,0,0,1-.2-.676h.764a.568.568,0,0,0,.109.313.589.589,0,0,0,.257.188,1,1,0,0,0,.366.063.957.957,0,0,0,.35-.059.532.532,0,0,0,.231-.162.378.378,0,0,0,.082-.239.315.315,0,0,0-.074-.212.581.581,0,0,0-.216-.146,2.247,2.247,0,0,0-.345-.109l-.407-.1a1.711,1.711,0,0,1-.747-.36.837.837,0,0,1-.272-.659.98.98,0,0,1,.182-.593,1.211,1.211,0,0,1,.5-.4,1.787,1.787,0,0,1,.73-.142,1.735,1.735,0,0,1,.728.142,1.149,1.149,0,0,1,.484.4,1.047,1.047,0,0,1,.179.588Z" fill="#384a51"/>
        <path id="Trazado_162" data-name="Trazado 162" d="M83.163,60.308v-.651h3.07v.651H85.089v3.086h-.782V60.308Z" fill="#384a51"/>
        <path id="Trazado_163" data-name="Trazado 163" d="M88.929,63.394h-.847l1.29-3.737h1.019l1.288,3.737h-.847L89.9,60.511h-.029Zm-.053-1.469h2v.617h-2Z" fill="#384a51"/>
        <path id="Trazado_164" data-name="Trazado 164" d="M93.53,60.308v-.651H96.6v.651H95.455v3.086h-.781V60.308Z" fill="#384a51"/>
        <path id="Trazado_165" data-name="Trazado 165" d="M99.111,63.394V59.657h2.519v.651H99.9V61.2h1.6v.651H99.9v.893h1.736v.651Z" fill="#384a51"/>
      </g>
    </g>
  </g>
</svg>
