<svg xmlns="http://www.w3.org/2000/svg" width="12.186" height="127.523" viewBox="0 0 12.186 127.523">
  <g id="Grupo_80" data-name="Grupo 80" transform="translate(-690.596 -9150.107)">
    <g id="Grupo_79" data-name="Grupo 79">
      <path id="Trazado_96" data-name="Trazado 96" d="M695.944,9274.55v-1.658a.979.979,0,0,0-.3-.709,1.06,1.06,0,0,0-1.556,0,1.037,1.037,0,0,0-.338.777v1.59Zm6.735,0v3.081H690.7v-4.671a4.161,4.161,0,0,1,1.22-2.944,4.165,4.165,0,0,1,5.888,0,2.345,2.345,0,0,1,.508.644l4.365-1.963v3.351l-3.655,1.623v.88Z"/>
      <path id="Trazado_97" data-name="Trazado 97" d="M693.744,9263.382h1.524v-3.69h2.672v3.69h1.693v-4.2h3.045v7.377H690.7v-7.377h3.046Z"/>
      <path id="Trazado_98" data-name="Trazado 98" d="M702.679,9253.128v3.08H690.7v-2.742l4.4-3.146-4.4-3.148v-2.741h11.981v3.08h-6.26l3.959,2.81-3.959,2.809Z"/>
      <path id="Trazado_99" data-name="Trazado 99" d="M694.354,9235.9a2.064,2.064,0,0,0-.711,1.489,2.191,2.191,0,0,0,.711,1.523,3.43,3.43,0,0,0,1.962.88h.373a3.611,3.611,0,0,0,2.233-.744,2.1,2.1,0,0,0,0-3.316,3.605,3.605,0,0,0-2.233-.745h-.373a3.239,3.239,0,0,0-1.962.913m2.335-3.959a6.53,6.53,0,0,1,4.2,1.453,5.156,5.156,0,0,1,0,7.989,6.746,6.746,0,0,1-4.2,1.489c-.2,0-.441-.033-.643-.033a6.6,6.6,0,0,1-3.86-1.76,5.076,5.076,0,0,1,0-7.379,6.37,6.37,0,0,1,3.86-1.727,5.739,5.739,0,0,1,.643-.033"/>
      <path id="Trazado_100" data-name="Trazado 100" d="M690.7,9230.25V9227.2h8.934v-5.346h3.046v8.394Z"/>
      <rect id="Rect치ngulo_71" data-name="Rect치ngulo 71" width="11.98" height="3.147" transform="translate(690.699 9216.677)"/>
      <path id="Trazado_101" data-name="Trazado 101" d="M690.7,9203.174h11.981v2.538l-.743.542-5.788,4.2h6.531v3.08H690.7v-2.844l6.059-4.433H690.7Z"/>
      <path id="Trazado_102" data-name="Trazado 102" d="M694.354,9194.611a2.062,2.062,0,0,0-.711,1.489,2.192,2.192,0,0,0,.711,1.522,3.405,3.405,0,0,0,1.962.88h.373a3.6,3.6,0,0,0,2.233-.744,2.1,2.1,0,0,0,0-3.317,3.6,3.6,0,0,0-2.233-.742h-.373a3.228,3.228,0,0,0-1.962.912m2.335-3.96a6.522,6.522,0,0,1,4.2,1.456,5.152,5.152,0,0,1,0,7.985,6.742,6.742,0,0,1-4.2,1.491c-.2,0-.441-.034-.643-.034a6.606,6.606,0,0,1-3.86-1.761,5.076,5.076,0,0,1,0-7.379,6.375,6.375,0,0,1,3.86-1.726,5.739,5.739,0,0,1,.643-.033"/>
      <rect id="Rect치ngulo_72" data-name="Rect치ngulo 72" width="3.757" height="3.757" transform="translate(698.922 9184.729)"/>
      <path id="Trazado_103" data-name="Trazado 103" d="M694.354,9176.166a2.067,2.067,0,0,0-.711,1.489,2.188,2.188,0,0,0,.711,1.522,3.418,3.418,0,0,0,1.962.881h.373a3.594,3.594,0,0,0,2.233-.747,2.1,2.1,0,0,0,0-3.314,3.6,3.6,0,0,0-2.233-.744h-.373a3.239,3.239,0,0,0-1.962.913m2.335-3.959a6.53,6.53,0,0,1,4.2,1.453,5.156,5.156,0,0,1,0,7.989,6.757,6.757,0,0,1-4.2,1.488c-.2,0-.441-.035-.643-.035a6.591,6.591,0,0,1-3.86-1.758,5.074,5.074,0,0,1,0-7.378,6.359,6.359,0,0,1,3.86-1.727,5.739,5.739,0,0,1,.643-.033"/>
      <path id="Trazado_104" data-name="Trazado 104" d="M695.944,9167.435v-1.659a.986.986,0,0,0-.3-.709,1.06,1.06,0,0,0-1.556,0,1.038,1.038,0,0,0-.338.776v1.592Zm6.735,0v3.08H690.7v-4.672a4.158,4.158,0,0,1,1.22-2.942,4.163,4.163,0,0,1,5.888,0,2.351,2.351,0,0,1,.508.642l4.365-1.962v3.35l-3.655,1.625v.88Z"/>
      <path id="Trazado_105" data-name="Trazado 105" d="M694.759,9150.342v3.116a1.206,1.206,0,0,0-.472.237.93.93,0,0,0-.272.4,2.671,2.671,0,0,0-.237,1.288,1.587,1.587,0,0,0,.237.947,1.919,1.919,0,0,0,.642.642,3.129,3.129,0,0,0,.744.306,5.263,5.263,0,0,0,1.321.167,4.612,4.612,0,0,0,1.457-.2,2.628,2.628,0,0,0,.914-.507,2.043,2.043,0,0,0,.371-.509,3.009,3.009,0,0,0,.238-.982v-.271c0-1.047-.44-1.691-1.286-1.691v2.1H696.18v-5.28h.679a8.874,8.874,0,0,1,2.335.234,4.867,4.867,0,0,1,2.1,1.018,4.955,4.955,0,0,1,1.014,1.319,5.556,5.556,0,0,1,.474,2.268v.032a2.925,2.925,0,0,1-.034.51,5.25,5.25,0,0,1-.711,2.4,5.42,5.42,0,0,1-3.147,2.336,7.6,7.6,0,0,1-2.167.271,8.127,8.127,0,0,1-2.4-.339,5.7,5.7,0,0,1-2.1-1.218,4.2,4.2,0,0,1-.98-1.321,4.613,4.613,0,0,1-.543-2.231,6.029,6.029,0,0,1,.543-2.607,3.92,3.92,0,0,1,1.387-1.623,3.155,3.155,0,0,1,.981-.543,4.489,4.489,0,0,1,1.048-.272Z"/>
    </g>
  </g>
</svg>
