<svg width="25" height="25" viewBox="0 0 25 25" fill="none" xmlns="http://www.w3.org/2000/svg">
<ellipse cx="13" cy="12.5" rx="9" ry="7.5" fill="white"/>
<path d="M24.6094 12.5C24.6094 19.1895 19.1895 24.6094 12.5 24.6094C5.81055 24.6094 0.390625 19.1895 0.390625 12.5C0.390625 5.81055 5.81055 0.390625 12.5 0.390625C19.1895 0.390625 24.6094 5.81055 24.6094 12.5ZM13.3301 18.0615L19.9463 11.4453C20.4053 10.9863 20.4053 10.2441 19.9463 9.79004L19.1162 8.95996C18.6572 8.50098 17.915 8.50098 17.4609 8.95996L12.5 13.9209L7.53906 8.95996C7.08008 8.50098 6.33789 8.50098 5.88379 8.95996L5.05371 9.79004C4.59473 10.249 4.59473 10.9912 5.05371 11.4453L11.6699 18.0615C12.1289 18.5205 12.8711 18.5205 13.3301 18.0615Z" fill="#ABB5A0"/>
</svg>
