<svg width="26" height="25" viewBox="0 0 26 25" fill="none" xmlns="http://www.w3.org/2000/svg">
<g clip-path="url(#clip0_17:2)">
<path d="M25.0264 9.31641C25.2168 9.16504 25.5 9.30664 25.5 9.5459V19.5312C25.5 20.8252 24.4502 21.875 23.1562 21.875H2.84375C1.5498 21.875 0.5 20.8252 0.5 19.5312V9.55078C0.5 9.30664 0.77832 9.16992 0.973633 9.32129C2.06738 10.1709 3.51758 11.25 8.49805 14.8682C9.52832 15.6201 11.2666 17.2021 13 17.1924C14.7432 17.207 16.5156 15.5908 17.5068 14.8682C22.4873 11.25 23.9326 10.166 25.0264 9.31641ZM13 15.625C14.1328 15.6445 15.7637 14.1992 16.584 13.6035C23.0635 8.90137 23.5566 8.49121 25.0508 7.31934C25.334 7.09961 25.5 6.75781 25.5 6.39648V5.46875C25.5 4.1748 24.4502 3.125 23.1562 3.125H2.84375C1.5498 3.125 0.5 4.1748 0.5 5.46875V6.39648C0.5 6.75781 0.666016 7.09473 0.949219 7.31934C2.44336 8.48633 2.93652 8.90137 9.41602 13.6035C10.2363 14.1992 11.8672 15.6445 13 15.625Z" fill="#384A51"/>
</g>
<defs>
<clipPath id="clip0_17:2">
<rect width="25" height="25" fill="white" transform="translate(0.5)"/>
</clipPath>
</defs>
</svg>
