<svg width="80" height="80" viewBox="0 0 80 80" fill="none" xmlns="http://www.w3.org/2000/svg">
<g clip-path="url(#clip0_14:25)">
<path d="M36.9169 78.3859C14.2141 45.4736 10 42.0958 10 30C10 13.4314 23.4314 0 40 0C56.5686 0 70 13.4314 70 30C70 42.0958 65.7859 45.4736 43.0831 78.3859C41.5933 80.5381 38.4066 80.538 36.9169 78.3859ZM40 42.5C46.9036 42.5 52.5 36.9036 52.5 30C52.5 23.0964 46.9036 17.5 40 17.5C33.0964 17.5 27.5 23.0964 27.5 30C27.5 36.9036 33.0964 42.5 40 42.5Z" fill="#384A51"/>
</g>
<defs>
<clipPath id="clip0_14:25">
<rect width="80" height="80" fill="white"/>
</clipPath>
</defs>
</svg>
