<svg width="40" height="40" viewBox="0 0 40 40" fill="none" xmlns="http://www.w3.org/2000/svg">
<g clip-path="url(#clip0_14:25)">
<path d="M18.4584 39.193C7.10703 22.7368 5 21.0479 5 15C5 6.7157 11.7157 0 20 0C28.2843 0 35 6.7157 35 15C35 21.0479 32.893 22.7368 21.5416 39.193C20.7966 40.2691 19.2033 40.269 18.4584 39.193ZM20 21.25C23.4518 21.25 26.25 18.4518 26.25 15C26.25 11.5482 23.4518 8.75 20 8.75C16.5482 8.75 13.75 11.5482 13.75 15C13.75 18.4518 16.5482 21.25 20 21.25Z" fill="#384A51"/>
</g>
<defs>
<clipPath id="clip0_14:25">
<rect width="40" height="40" fill="white"/>
</clipPath>
</defs>
</svg>
