<svg xmlns="http://www.w3.org/2000/svg" width="22.816" height="22.816" viewBox="0 0 22.816 22.816">
  <g id="Grupo_75" data-name="Grupo 75" transform="translate(-270.976 -9194.559)">
    <g id="Grupo_74" data-name="Grupo 74">
      <g id="Grupo_73" data-name="Grupo 73">
        <path id="Trazado_95" data-name="Trazado 95" d="M282.387,9194.559h-.006a11.4,11.4,0,0,0-9.233,18.1l-1.422,4.237,4.385-1.4a11.406,11.406,0,1,0,6.276-20.932Zm6.638,16.11a3.22,3.22,0,0,1-2.239,1.61c-.6.127-1.375.228-4-.859a14.3,14.3,0,0,1-5.68-5.016,6.524,6.524,0,0,1-1.354-3.441,3.647,3.647,0,0,1,1.166-2.777,1.66,1.66,0,0,1,1.167-.408c.141,0,.268.007.382.013.335.014.5.034.724.563.275.663.946,2.3,1.026,2.469a.682.682,0,0,1,.048.618,1.99,1.99,0,0,1-.369.522c-.169.194-.328.343-.5.551-.154.182-.328.375-.134.71a10.158,10.158,0,0,0,1.851,2.3,8.385,8.385,0,0,0,2.676,1.649.721.721,0,0,0,.8-.127,13.752,13.752,0,0,0,.891-1.181.637.637,0,0,1,.819-.248c.308.106,1.938.913,2.273,1.08s.556.248.637.389A2.841,2.841,0,0,1,289.025,9210.669Z" fill="#384a51"/>
      </g>
    </g>
  </g>
</svg>
